<?xml version="1.0" standalone="no"?>
<!DOCTYPE svg PUBLIC "-//W3C//DTD SVG 20010904//EN"
 "http://www.w3.org/TR/2001/REC-SVG-20010904/DTD/svg10.dtd">
<svg version="1.0" xmlns="http://www.w3.org/2000/svg"
 width="512.000000pt" height="512.000000pt" viewBox="0 0 512.000000 512.000000"
 preserveAspectRatio="xMidYMid meet">
<metadata>
Created by potrace 1.14, written by Peter Selinger 2001-2017
</metadata>
<g transform="translate(0.000000,512.000000) scale(0.100000,-0.100000)"
fill="#000000" stroke="none">
<path d="M0 3065 c0 -932 4 -1695 8 -1695 4 0 18 7 30 16 15 10 22 11 22 3 0
-9 3 -9 14 0 15 12 84 13 101 0 14 -10 132 -16 141 -6 4 4 -4 7 -17 8 -22 1
-22 2 7 14 25 11 39 12 65 3 19 -6 40 -12 46 -14 7 -2 10 -10 7 -18 -4 -10 3
-15 23 -18 22 -2 28 -8 28 -27 0 -13 6 -26 13 -29 9 -3 11 3 6 23 -6 24 -4 26
20 20 14 -3 37 -7 51 -10 36 -8 31 -22 -5 -17 -16 2 -30 0 -30 -6 0 -10 51
-35 66 -31 12 4 154 -40 154 -48 0 -3 -11 -2 -25 1 -35 9 -23 -15 18 -34 20
-9 31 -21 29 -31 -2 -16 40 -40 76 -43 24 -2 58 -23 50 -31 -3 -4 -16 -1 -28
5 -18 10 -25 9 -36 -2 -12 -12 -10 -14 12 -16 35 -3 45 -10 42 -30 -2 -11 5
-18 18 -20 22 -3 65 -42 47 -42 -6 0 -16 7 -23 15 -8 9 -26 15 -47 13 -19 -1
-38 3 -42 10 -4 6 -21 15 -39 18 -25 5 -32 3 -32 -10 0 -20 -9 -20 -35 1 -16
13 -17 15 -2 10 11 -4 17 -1 17 8 0 16 -43 31 -59 20 -6 -3 -11 -1 -11 4 0 6
-7 11 -16 11 -11 0 -15 -6 -11 -20 6 -24 -15 -27 -33 -5 -9 10 -9 15 -1 15 6
0 11 4 11 9 0 13 -32 19 -55 10 -16 -6 -17 -8 -3 -8 9 -1 19 -5 22 -10 7 -11
-77 -2 -129 14 -35 12 -37 13 -12 14 15 1 27 6 27 11 0 6 -12 10 -27 11 -16 0
-55 2 -88 4 l-60 3 45 -13 c63 -18 62 -18 -215 -10 -55 2 -108 1 -117 -1 -50
-14 2 -22 190 -27 194 -5 268 -14 397 -48 22 -6 58 -14 80 -19 22 -4 56 -13
75 -20 19 -7 51 -18 70 -25 19 -7 51 -18 70 -25 59 -21 102 -22 180 -2 l75 18
1 110 c1 60 2 207 3 327 0 143 4 216 11 212 6 -3 10 -38 10 -77 0 -129 7 -66
14 120 5 157 4 183 -9 188 -28 11 -33 79 -35 446 -1 372 2 416 38 483 12 22
16 64 18 165 1 78 7 146 13 158 6 11 11 41 11 67 0 25 7 62 15 82 8 19 15 52
15 73 0 21 7 54 15 73 8 20 15 57 15 82 0 91 31 156 125 267 12 15 29 51 66
145 10 28 97 142 154 203 23 25 62 72 87 105 82 109 129 152 178 165 25 6 84
32 133 56 48 24 99 44 114 44 15 0 47 7 71 17 38 14 57 15 165 4 67 -6 174
-14 237 -17 63 -3 131 -11 150 -19 19 -7 69 -23 110 -36 41 -12 86 -29 100
-36 14 -7 30 -13 35 -13 6 0 43 -16 84 -37 110 -57 161 -108 217 -216 26 -51
55 -103 65 -116 11 -13 19 -29 19 -36 0 -7 7 -19 16 -26 27 -22 79 -110 133
-224 28 -59 51 -110 51 -112 0 -3 6 -19 13 -36 25 -60 47 -135 47 -161 0 -15
5 -37 12 -49 6 -12 17 -76 24 -142 16 -145 29 -221 42 -255 5 -15 13 -318 17
-730 4 -388 9 -719 11 -735 2 -17 6 -86 10 -155 3 -69 10 -143 16 -165 5 -22
13 -76 17 -119 9 -87 25 -109 86 -119 37 -7 105 -24 166 -43 59 -18 127 -17
159 1 14 8 45 14 68 15 24 0 56 6 70 14 48 24 96 38 152 45 30 4 64 12 75 18
11 6 61 13 110 16 50 4 106 11 125 17 19 5 95 10 167 10 l133 0 0 1870 0 1870
-2560 0 -2560 0 0 -1695z m1173 -1415 c-3 -12 -8 -19 -11 -16 -5 6 5 36 12 36
2 0 2 -9 -1 -20z m-856 -206 c-3 -3 -12 -4 -19 -1 -8 3 -5 6 6 6 11 1 17 -2
13 -5z m-64 -51 c-7 -2 -21 -2 -30 0 -10 3 -4 5 12 5 17 0 24 -2 18 -5z m222
-3 c3 -5 -1 -10 -10 -10 -9 0 -13 5 -10 10 3 6 8 10 10 10 2 0 7 -4 10 -10z
m235 -109 c0 -4 -11 -6 -25 -3 -14 2 -25 6 -25 8 0 2 11 4 25 4 14 0 25 -4 25
-9z m136 -276 c10 -8 14 -15 8 -15 -5 0 -19 7 -30 15 -10 8 -14 15 -8 15 5 0
19 -7 30 -15z m151 -1 c-3 -3 -12 -4 -19 -1 -8 3 -5 6 6 6 11 1 17 -2 13 -5z
m-100 -20 c-3 -3 -12 -4 -19 -1 -8 3 -5 6 6 6 11 1 17 -2 13 -5z m43 -9 c7 -8
8 -15 2 -15 -5 0 -15 7 -22 15 -7 8 -8 15 -2 15 5 0 15 -7 22 -15z m115 -5
c-11 -5 -27 -9 -35 -9 -13 -1 -13 0 0 9 8 5 24 9 35 9 l20 0 -20 -9z"/>
<path d="M378 1383 c7 -3 16 -2 19 1 4 3 -2 6 -13 5 -11 0 -14 -3 -6 -6z"/>
<path d="M0 1350 c0 -5 4 -10 9 -10 6 0 13 5 16 10 3 6 -1 10 -9 10 -9 0 -16
-4 -16 -10z"/>
<path d="M186 1351 c15 -15 97 -17 102 -3 2 8 -13 12 -54 12 -36 0 -54 -4 -48
-9z"/>
<path d="M310 1339 c0 -5 11 -9 25 -9 14 0 25 2 25 4 0 2 -11 6 -25 8 -14 3
-25 1 -25 -3z"/>
<path d="M416 1341 c-2 -3 7 -11 20 -18 19 -9 24 -8 24 2 0 14 -37 28 -44 16z"/>
<path d="M268 1313 c-87 -6 -70 -23 22 -23 44 0 80 4 80 9 0 9 -27 22 -38 19
-4 -1 -33 -3 -64 -5z"/>
<path d="M550 1260 c0 -7 7 -10 16 -6 9 4 22 2 28 -2 15 -13 66 -21 66 -11 0
9 -18 15 -72 25 -27 4 -38 3 -38 -6z"/>
<path d="M333 1233 c9 -2 25 -2 35 0 9 3 1 5 -18 5 -19 0 -27 -2 -17 -5z"/>
<path d="M575 1220 c-3 -5 1 -10 9 -10 9 0 16 5 16 10 0 6 -4 10 -9 10 -6 0
-13 -4 -16 -10z"/>
<path d="M283 1213 c9 -2 23 -2 30 0 6 3 -1 5 -18 5 -16 0 -22 -2 -12 -5z"/>
<path d="M48 1183 c6 -2 18 -2 25 0 6 3 1 5 -13 5 -14 0 -19 -2 -12 -5z"/>
<path d="M710 1185 c0 -2 9 -9 20 -15 16 -9 20 -8 20 5 0 8 -9 15 -20 15 -11
0 -20 -2 -20 -5z"/>
<path d="M323 1163 c15 -2 37 -2 50 0 12 2 0 4 -28 4 -27 0 -38 -2 -22 -4z"/>
<path d="M650 1159 c0 -5 5 -7 10 -4 6 3 10 8 10 11 0 2 -4 4 -10 4 -5 0 -10
-5 -10 -11z"/>
<path d="M40 1153 c0 -5 34 -9 75 -9 41 -1 72 2 69 7 -6 11 -144 12 -144 2z"/>
<path d="M840 1060 c0 -5 5 -10 11 -10 5 0 7 5 4 10 -3 6 -8 10 -11 10 -2 0
-4 -4 -4 -10z"/>
</g>
</svg>
