<?xml version="1.0" encoding="utf-8"?>
<!-- Generator: Adobe Illustrator 25.4.1, SVG Export Plug-In . SVG Version: 6.00 Build 0)  -->
<svg version="1.1" id="Layer_1" xmlns="http://www.w3.org/2000/svg" xmlns:xlink="http://www.w3.org/1999/xlink" x="0px" y="0px"
	 viewBox="0 0 469 115.6" style="enable-background:new 0 0 469 115.6;" xml:space="preserve">
<style type="text/css">
	.st0{fill:#ffffff;}
</style>
<g>
	<g>
		<path class="st0" d="M412.8,115.6c-5.3,0-10.6,0-15.8,0c-6.3,0-13.3,0-20.1-0.1c-0.1,0-0.2,0-0.3-0.1l-0.1-0.1l-0.1-0.1
			c-1.3-2.8-2.5-5.7-3.7-8.6c-1.2-2.8-2.4-5.8-3.8-8.7c-0.2-0.5-0.3-1,0.5-2.3c0.8-1.3,1.5-2.5,2.2-3.9c0.3-0.5,0.6-1.1,0.9-1.6
			l-2.4-4.1h-5.9l-2.4,1.3c-0.1,0.2-0.2,0.3-0.3,0.5c-0.4,0.6-0.9,1.2-1.2,2c-1.4,3.4-3.9,6.1-8.8,9c-5.4,3.2-10.7,6.6-15.9,10
			l-0.2,0.1c-2.9,1.9-5.9,3.8-8.9,5.6c-0.8,0.5-1.6,0.8-1.8,0.8c-5.9,0-12.3,0.1-20.3,0.1h-1.2l31.1-54.2l-12.9,0l4.1-7.1l0.2,0
			c3.2,0,6.4,0,9.6,0.1l0.2,0c2.3,0,3.4-0.7,4.7-3c5.8-10.4,11.9-20.9,17.7-30.8c0.8-1.4,1-2.4,0.5-3.5c-0.3-0.7-0.6-1.5-0.9-2.2
			l-0.7-1.8l5.8-3.7c4.4-2.8,9-5.7,13.5-8.5c0.9-0.6,2.1-0.9,2.6-0.9c16.3,0,32.9,0,48.9-0.1c11.2,0,22.5,0,33.7,0
			c0.1,0,0.2,0,0.2,0l0.2,0l0.1,0.2c1,2.6,2.1,5.2,3.2,7.8l0.1,0.2c1.3,3.2,2.7,6.5,3.9,9.7l0,0c0.1,0.3,0,0.9-0.2,1.3
			c-9.8,17.1-19.7,34.4-29.3,51.1l-0.7,1.3c-8.2,14.4-16.5,28.7-24.7,43.1c-0.3,0.5-0.4,0.7-0.5,0.8l-0.1,0.1l-0.1,0
			C413.2,115.6,413,115.6,412.8,115.6z M377,114.8c6.6,0.1,13.7,0.1,19.9,0.1c5.2,0,10.6,0,15.9,0c0.1,0,0.2,0,0.2,0
			c0.1-0.1,0.2-0.3,0.4-0.6c8.2-14.4,16.5-28.7,24.7-43.1l0.7-1.3c9.6-16.8,19.6-34.1,29.3-51.1c0.1-0.2,0.1-0.6,0.1-0.7
			c-1.2-3.2-2.6-6.5-3.9-9.6l-0.1-0.2c-1-2.5-2.1-5-3.1-7.6c-11.2,0-22.5,0-33.7,0c-16,0-32.6,0-48.9,0.1c-0.5,0-1.5,0.3-2.2,0.8
			c-4.5,2.8-9,5.7-13.4,8.4l-5.3,3.3l0.5,1.2c0.3,0.7,0.6,1.5,0.9,2.2c0.6,1.3,0.4,2.5-0.5,4.2c-5.7,9.8-11.8,20.4-17.7,30.8
			c-1.4,2.6-2.7,3.4-5.3,3.4l-0.2,0c-3.1,0-6.2-0.1-9.3-0.1l-3.2,5.6l12.9,0l-31.1,54.2c8,0,14.4,0,20.2-0.1c0,0,0.7-0.2,1.5-0.7
			c3-1.9,6-3.8,8.9-5.6l0.2-0.1c5.2-3.3,10.5-6.7,15.9-10c4.8-2.9,7.2-5.4,8.5-8.6c0.3-0.8,0.8-1.5,1.2-2.1c0.1-0.2,0.3-0.4,0.4-0.6
			l0.1-0.1l2.7-1.5h6.4l2.8,4.8l-0.1,0.2c-0.4,0.6-0.7,1.2-1,1.8c-0.7,1.3-1.4,2.6-2.3,3.9c-0.6,1-0.5,1.2-0.4,1.6
			c1.3,2.9,2.6,5.8,3.8,8.7C374.6,109.2,375.8,112,377,114.8z M388.4,58.1c-0.3,0-0.7,0-1-0.1c-0.4-0.1-1.2,0-2,0
			c-0.6,0-1.1,0-1.7,0h-0.2l-2.8-4.9l3.1-5.4c4.2-7.3,8.2-14.1,12.3-21.1c0.8-1.4,2.8-2.7,4.5-2.9c0.7-0.1,1.5-0.1,2.4-0.1
			c0.5,0,0.9,0,1.4,0c0.5,0,1,0,1.6,0h0.2l2.8,4.9l-2.4,4.3c-1.7,3-3.4,5.9-5,8.8c-0.8,1.4-1.7,2.9-2.5,4.3
			c-1.5,2.5-3.2,5.4-4.7,8.2C393.7,55.2,392.1,58.1,388.4,58.1z M386.4,57.2c0.4,0,0.8,0,1.1,0.1c0.3,0,0.6,0.1,0.9,0.1
			c3.3,0,4.7-2.6,5.3-3.6c1.5-2.8,3.2-5.7,4.7-8.2c0.8-1.4,1.7-2.9,2.5-4.3c1.7-2.9,3.3-5.8,5-8.8l2.2-3.9l-2.4-4.1
			c-0.5,0-0.9,0-1.4,0c-0.5,0-1,0-1.4,0c-0.9,0-1.6,0-2.4,0.1c-1.4,0.1-3.2,1.3-3.9,2.5c-4.1,6.9-8,13.8-12.2,21.1l-2.9,5.1l2.4,4.1
			c0.5,0,0.9,0,1.4,0C385.7,57.2,386,57.2,386.4,57.2z"/>
	</g>
	<g>
		<path class="st0" d="M301.8,115.6l-0.2,0l-38.6,0c-19.4,0-42.4,0-64.9,0c-0.5,0-0.8,0-0.9-0.1l-0.1,0l-0.1-0.1
			c0-0.1-0.1-0.2-0.2-0.3c-1.2-3-2.4-5.9-3.6-8.8c-1.2-2.8-2.4-5.7-3.6-8.6l0-0.1c0-0.3,0.1-0.9,0.3-1.2c6.8-12,13.8-24.1,20.6-36
			l0.1-0.1c2-1.2,3.9-2.5,5.9-3.7c2.4-1.5,4-3.2,5.4-5.5c5.7-10,11.6-20.1,17.3-29.9l4-6.8c1.8-1.1,3.6-2.3,5.4-3.4
			c5.1-3.2,10.3-6.5,15.5-9.7c1.3-0.8,2.8-1.2,3.6-1.2c15.4-0.1,31-0.1,46.1-0.1c11.9,0,23.7,0,35.6,0l0,0.8c-11.9,0-23.7,0-35.6,0
			c-15.1,0-30.6,0-46.1,0.1c-0.7,0-2.2,0.4-3.2,1.1c-5.2,3.2-10.4,6.5-15.4,9.7c-1.8,1.1-3.6,2.3-5.3,3.4l-3.8,6.6
			c-5.7,9.8-11.5,19.9-17.2,29.9c-1.4,2.5-3.2,4.3-5.7,5.8c-1.9,1.2-3.9,2.4-5.8,3.6c-6.8,11.9-13.7,23.9-20.5,35.9
			c-0.1,0.2-0.2,0.6-0.2,0.7c1.1,2.8,2.3,5.7,3.5,8.4c1.2,2.9,2.5,5.9,3.7,8.8c0,0,0,0.1,0,0.1c0.1,0,0.3,0,0.5,0
			c22.6,0,45.5,0,64.9,0l38.4,0l29-50.4l-23,0c-7.1,0-17.7,0-28.3-0.1c3.9,12.1,4.2,13.1,6.4,21.6l0.6,2.2l-3.2,4.1l-0.2,0
			c-5.7-0.1-24.2-0.3-24.9-0.3l-3.5,0l-2,0l-2.8-4.9l0.1-0.2L285,25.4l2.8-1.6h6.5l2.9,4.7l-0.1,0.2c-0.3,0.5-0.5,1-0.8,1.5
			c-0.3,0.5-0.5,1-0.7,1.4c-1.1,2.5-1.1,2.5-0.9,3c2.1,4.7,4.3,9.8,6.9,16.6c0,0,0,0.1,0,0.1c0.1,0,0.2,0,0.4,0
			c8.9-0.1,16.2-0.1,23-0.1l3.5,0c2.7,0,5.3,0,7.9,0.1l0.1,0c1.1,0,1.2,0,2-1.5c5.5-9.8,11.1-19.4,17.7-30.8
			c0.4-0.6,0.4-0.8,0.4-0.8c-0.5-1.1-0.9-2.1-1.4-3.3l-1.2-2.8c-1.8-4.3-3.3-8-4.7-11.5c-0.1,0-0.2,0-0.4,0V0c0.4,0,0.6,0,0.7,0.1
			l0.2,0l0.1,0.2c0,0,0.1,0.1,0.1,0.2c1.4,3.5,2.9,7.2,4.7,11.5l1.2,2.8c0.5,1.1,0.9,2.2,1.4,3.2c0.1,0.3,0.1,0.6-0.4,1.5
			c-6.6,11.4-12.2,21-17.7,30.8c-1,1.8-1.4,1.9-2.7,1.9l-0.1,0c-2.6,0-5.2-0.1-7.9-0.1l-3.4,0c-6.8,0-14.1,0-23,0.1
			c-0.5,0-0.7,0-0.8-0.1l-0.1,0l-0.1-0.1c0-0.1-0.1-0.2-0.2-0.3c-2.6-6.8-4.8-11.9-6.9-16.5c-0.4-0.8-0.3-1,0.8-3.7
			c0.2-0.4,0.4-0.9,0.7-1.4c0.2-0.4,0.4-0.8,0.7-1.3l-2.5-4H288l-2.4,1.4l-35.3,61l2.4,4.1l3,0l2.1,0c0.6,0,17.3,0.2,24.7,0.3
			l2.7-3.5l-0.5-1.8c-2.3-8.7-2.5-9.6-6.6-22.1l-0.2-0.5l0.5,0c10.8,0.1,21.6,0.1,28.8,0.1l24.3,0L301.8,115.6z"/>
	</g>
	<g>
		<path class="st0" d="M146.1,115.6c-6-0.1-12.3-0.1-17.8-0.1c-5.9,0-12,0-17.9-0.1c-0.1,0-0.2,0-0.3-0.1l-0.1-0.1l-0.1-0.1
			c-2.5-5.6-5-11.3-7.5-17.6l0-0.1c0-0.3,0.1-0.7,0.3-1.1c2.6-4.7,5.2-9.3,8.1-14.3c0.9-1.6,1.8-3.2,2.8-4.8l-2.4-4.1c-1,0-2,0-3,0
			c-1,0-2,0-2.9,0c-1.7,0-3,0-4.3-0.1c-0.2,0-0.3-0.1-0.4-0.1l-0.1-0.1l-0.1-0.1c-2.6-5.7-5.1-11.6-7.5-17.6c-0.1-0.4,0-1,0.2-1.3
			c5.2-9,10.5-18.2,15.6-27.1l0.1-0.2l0.6,0c1.1-0.1,2.4-0.5,3.3-1c10.3-6.5,20.5-12.9,29.9-18.9c1-0.6,1.8-1.4,2.2-2
			c0.9-1.4,1.8-2.9,2.6-4.4l0.1-0.2l0.2,0c4,0,8.3,0,13-0.1c0,0,0,0,0,0c0.1,0,0.2,0,0.2,0l0.2,0l0.1,0.2c2.8,7,5,12.3,7.2,17.3
			c0.2,0.5,0.3,1.1-0.6,2.6c-3.5,5.9-6.9,12-10.3,17.9l-2.1,3.7c-0.4,0.7-0.8,1.4-1.1,2.1l0,0.1c-0.1,0.2-0.3,0.5-0.4,0.8l2.4,4h5.9
			l2.4-1.4l2.3-4.1c1.9-3.2,3.7-6.5,5.6-9.7c0.7-1.2,1.4-2.4,2.1-3.7l0.1-0.2c1.5-2.7,3.1-5.5,4.7-8.2c0.3-0.5,1-1.2,1.5-1.5
			c9.4-6,19.4-12.3,30.4-19.2c0.6-0.4,1.2-0.6,1.4-0.6c5.5,0,11.2,0,18.1,0c5.2,0,10.5,0,15.7,0l0.6,0l-0.3,0.6
			c-1.6,2.8-3.2,5.6-4.8,8.4l-6.5,11.2c-5.7,9.8-11.5,19.8-17.2,29.7c-1.2,2.1-2.5,3.5-4.6,4.8l-1.1,0.7c-0.9,0.6-1.8,1.1-2.7,1.7
			c-0.9,0.6-1.8,1.1-2.7,1.7c-2.5,1.6-5.1,3.2-7.5,4.8c-4.4,2.8-8.9,5.6-13.3,8.4c-1,0.6-2.5,1.1-3.8,1.2c-1.1,0.1-2.2,0.1-3.5,0.1
			c-1.1,0-2.3,0-3.4-0.1l-1.4,0c-2.8,0-4.2,1.8-4.9,3.1c-3.3,5.9-6.8,11.9-10.1,17.7l-0.2,0.4c-3.8,6.5-7.6,13.3-11.4,20
			c-0.3,0.6-0.6,1-0.8,1.1C146.8,115.6,146.5,115.6,146.1,115.6z M110.6,114.8c5.9,0.1,11.9,0.1,17.7,0.1c5.5,0,11.8,0,17.8,0.1
			c0.2,0,0.4,0,0.4,0c0.1-0.1,0.2-0.3,0.5-0.8c3.8-6.7,7.7-13.4,11.4-20l0.2-0.4c3.3-5.8,6.7-11.8,10.1-17.7
			c0.8-1.5,2.3-3.5,5.6-3.5l1.4,0c1.1,0,2.3,0.1,3.4,0.1c1.3,0,2.4,0,3.5-0.1c1.2-0.1,2.6-0.6,3.5-1.1c4.5-2.8,9-5.6,13.3-8.4
			c2.5-1.6,5-3.2,7.5-4.8l0,0c0.9-0.6,1.8-1.1,2.7-1.7c0.9-0.6,1.8-1.1,2.7-1.7l1.1-0.7c2-1.2,3.2-2.5,4.4-4.5
			c5.7-9.9,11.5-20,17.1-29.7l6.5-11.3c1.5-2.6,3-5.2,4.5-7.8c-5,0-10.1,0-15.1,0c-6.8,0-12.6,0-18,0c0,0-0.5,0.2-1,0.5
			c-11,6.9-20.9,13.2-30.3,19.2c-0.5,0.3-1,0.9-1.3,1.3c-1.6,2.7-3.2,5.5-4.7,8.2l-0.1,0.2c-0.7,1.2-1.4,2.4-2.1,3.7
			c-1.9,3.2-3.7,6.5-5.6,9.7l-2.4,4.2l-2.8,1.6h-6.5l-2.9-4.7l0.1-0.2c0.2-0.3,0.3-0.6,0.5-0.9l0-0.1c0.4-0.7,0.7-1.4,1.1-2.2
			l2.1-3.7c3.4-5.9,6.9-12,10.3-17.9c0.8-1.3,0.6-1.7,0.5-1.9c-2.2-4.9-4.4-10.2-7.1-17.1c-4.6,0-8.8,0-12.7,0.1
			c-0.8,1.5-1.7,2.9-2.6,4.3c-0.6,1-1.8,1.8-2.5,2.2c-9.4,6-19.5,12.5-29.9,18.9c-1,0.6-2.4,1.1-3.7,1.1l-0.2,0
			c-5.1,8.9-10.4,18-15.5,26.9c-0.1,0.2-0.2,0.6-0.2,0.8C96,61,98.5,66.8,101,72.5c0,0,0,0,0,0c1.2,0.1,2.5,0.1,4.2,0.1
			c0.9,0,1.9,0,2.8,0c1.1,0,2.1,0,3.2,0h0.2l2.8,4.9l-0.1,0.2c-1,1.7-1.9,3.4-2.9,5c-2.8,4.9-5.5,9.5-8.1,14.2
			c-0.1,0.2-0.2,0.5-0.2,0.6C105.7,103.6,108.1,109.3,110.6,114.8z"/>
	</g>
	<g>
		<path class="st0" d="M25.2,115.6c-5.7,0-11.5,0-17.3-0.1l-0.2,0l-0.1-0.2C4.7,108.8,2.2,103,0,97.6l0-0.1l0-0.1
			c0-0.2,0.1-0.6,0.2-0.9C10.1,79.4,20.2,61.9,29.9,45L38,30.9c0.3-0.5,0.6-1,0.9-1.6l0-0.1c0.1-0.2,0.2-0.5,0.4-0.7l-2.5-4
			c-0.8,0-1.8,0-3,0l-0.5,0c-1.8,0-4,0-5.9,0c-3,0-5,0-6.2,0.1l-0.2,0c-0.3,0-0.4,0-0.5,0l-0.2,0L20,24.2c0,0,0-0.1-0.1-0.2
			c-2.1-5.4-4.5-11-7.3-17.2c-0.2-0.5-0.3-0.9,0.4-2l0.1-0.2c1.5-2.5,2.3-3.8,2.9-4.2C16.7,0.1,18,0,20.4,0H145l-0.3,0.6
			c-0.7,1.2-1.2,2.1-1.7,2.9c-0.1,0.2-0.6,0.7-1.5,1.3c-9.4,6-19.5,12.5-29.8,18.9c-0.1,0-0.1,0.1-0.2,0.1c-0.7,0.3-1.4,0.5-2,0.6
			l-0.2,0c-0.6,0-1.2,0.1-1.8,0.1c-2.1,0.1-4.2,0-6.2-0.1c-3.7-0.2-5.3,2-6.2,3.7c-4,7.1-8.2,14.3-12.2,21.3l-0.1,0.2
			c-1.7,3-3.5,6-5.2,9.1l-5.9,10.3C62.8,84,53.9,99.6,44.9,115.1l-0.1,0.1c-0.1,0.1-0.3,0.2-0.4,0.3l-0.2,0
			C38.1,115.6,31.7,115.6,25.2,115.6z M8.1,114.8c12.3,0.1,24.6,0.1,35.9,0c0.1,0,0.1-0.1,0.2-0.1c9-15.5,17.9-31.1,26.6-46.1
			l5.9-10.3c1.7-3,3.5-6,5.2-9.1l0.1-0.2c4-7,8.2-14.2,12.2-21.3c1-1.8,2.8-4.3,6.9-4c2,0.1,4,0.1,6.1,0.1c0.6,0,1.2,0,1.8-0.1
			l0.2,0c0.5,0,1.2-0.2,1.7-0.4c0.1-0.1,0.2-0.1,0.2-0.1c10.3-6.4,20.4-12.9,29.8-18.9c0.9-0.5,1.3-1,1.3-1.1
			c0.4-0.7,0.9-1.4,1.4-2.3H20.4c-1.7,0-3.6,0-3.9,0.2C16,1.3,15,3,13.8,5l-0.1,0.2c-0.6,0.9-0.5,1.1-0.4,1.3
			c2.8,6.2,5.2,11.9,7.3,17.2c0.1,0,0.1,0,0.2,0l0.2,0c1.2,0,3.2-0.1,6.3-0.1c2,0,4.1,0,5.9,0l0.5,0c1.3,0,2.4,0,3.2,0h0.2l2.9,4.7
			L40,28.6c-0.2,0.3-0.3,0.6-0.4,0.9l0,0.1c-0.3,0.6-0.6,1.1-0.9,1.7l-8.1,14.1C20.8,62.2,10.7,79.7,0.9,96.9
			c-0.1,0.1-0.1,0.3-0.1,0.5C2.9,102.7,5.3,108.4,8.1,114.8z"/>
	</g>
</g>
</svg>
